<svg xmlns="http://www.w3.org/2000/svg" class="size-4" viewBox="0 0 600 530"><path fill="#fff" d="M588.965 130.224c0-37.315-7.463-120.474-65.035-120.474-73.894 0-181.499 136.22-223.889 234.721C257.652 145.97 150.046 9.75 76.152 9.75c-57.571 0-65.034 83.159-65.034 120.474 0 60.172 18.572 165.4 150.603 183.78-46.026 15.47-86.635 44.65-86.635 88.085 0 54.373 63.968 118.341 121.54 118.341 53.349 0 88.862-66.015 103.415-118.096 14.553 52.081 50.066 118.096 103.416 118.096 57.571 0 121.539-63.968 121.539-118.341 0-43.435-40.62-72.615-86.634-88.085 132.03-18.38 150.603-123.608 150.603-183.78"/></svg>