<svg width="100%" height="100%" viewBox="0 0 600 530" version="1.1" xmlns="http://www.w3.org/2000/svg" class="size-4">
    <path d="M588.965 130.224C588.965 92.9087 581.502 9.75 523.93 9.75C450.036 9.75 342.431 145.97 300.041 244.471C257.652 145.97 150.046 9.75 76.1523 9.75C18.5809 9.75 11.1179 92.9087 11.1179 130.224C11.1179 190.396 29.69 295.624 161.721 314.004C115.695 329.474 75.0862 358.654 75.0862 402.089C75.0862 456.462 139.054 520.43 196.626 520.43C249.975 520.43 285.488 454.415 300.041 402.334C314.594 454.415 350.107 520.43 403.457 520.43C461.028 520.43 524.996 456.462 524.996 402.089C524.996 358.654 484.376 329.474 438.362 314.004C570.392 295.624 588.965 190.396 588.965 130.224Z"
          fill="currentColor"/>
</svg>